<svg xmlns="http://www.w3.org/2000/svg" xmlns:xlink="http://www.w3.org/1999/xlink" width="500" zoomAndPan="magnify" viewBox="0 0 375 374.999991" height="500" preserveAspectRatio="xMidYMid meet" version="1.0"><defs><g/></defs><path stroke-linecap="butt" transform="matrix(4.611469, 0, 0, 4.611469, 22.207659, 16.875642)" fill="none" stroke-linejoin="miter" d="M 33.487194 23.457849 C 31.300052 17.911216 25.649229 14.226449 20.584581 13.913879 L 12.473011 20.840394 C 12.31715 17.689283 11.626786 15.033709 8.267295 13.913879 L -1.275828 21.960224 L -0.377931 23.61371 C 2.77318 21.700173 3.944682 22.767484 4.101391 26.009232 L 4.153062 46.815882 C 4.101391 49.263075 3.359355 50.331234 2.447904 51.77634 L 3.737149 53.000361 C 7.408363 49.796731 11.19732 53.000361 15.142138 53.000361 C 18.879423 53.000361 22.720051 50.331234 26.078695 47.349538 C 34.190265 39.824143 36.000459 30.175983 33.487194 23.457849 Z M 24.633589 45.005687 C 21.118237 48.195764 17.759593 43.885857 12.538236 44.146755 L 12.473011 24.355746 L 16.431383 21.113998 C 24.152452 21.113998 29.490704 39.99271 24.633589 45.005687 Z M 24.633589 45.005687 " stroke="#660606" stroke-width="5.399997" stroke-opacity="1" stroke-miterlimit="4"/><g fill="#ff3131" fill-opacity="1"><g transform="translate(22.207659, 261.283493)"><g><path d="M 154.445312 -136.246094 C 144.359375 -161.820312 118.292969 -178.789062 94.929688 -180.265625 L 57.546875 -148.296875 C 56.808594 -162.804688 53.613281 -175.101562 38.117188 -180.265625 L -5.902344 -143.132812 L -1.722656 -135.507812 C 12.789062 -144.359375 18.199219 -139.441406 18.9375 -124.441406 L 19.183594 -28.527344 C 18.9375 -17.214844 15.492188 -12.296875 11.3125 -5.65625 L 17.214844 0 C 34.183594 -14.753906 51.644531 0 69.84375 0 C 87.058594 0 104.765625 -12.296875 120.257812 -26.070312 C 157.640625 -60.746094 166.003906 -105.257812 154.445312 -136.246094 Z M 113.621094 -36.890625 C 97.386719 -22.132812 81.894531 -42.054688 57.792969 -40.824219 L 57.546875 -132.0625 L 75.746094 -147.066406 C 111.40625 -147.066406 136 -60.007812 113.621094 -36.890625 Z M 113.621094 -36.890625 "/></g></g></g><path stroke-linecap="butt" transform="matrix(4.611469, 0, 0, 4.611469, 187.499992, 16.875642)" fill="none" stroke-linejoin="miter" d="M 33.487332 23.457849 C 31.30019 17.911216 25.649367 14.226449 20.584718 13.913879 L 12.473149 20.840394 C 12.317288 17.689283 11.626923 15.033709 8.267432 13.913879 L -1.27569 21.960224 L -0.377793 23.61371 C 2.773318 21.700173 3.94482 22.767484 4.101528 26.009232 L 4.1532 46.815882 C 4.101528 49.263075 3.359493 50.331234 2.448042 51.77634 L 3.73644 53.000361 C 7.408501 49.796731 11.197457 53.000361 15.142276 53.000361 C 18.878714 53.000361 22.720189 50.331234 26.078833 47.349538 C 34.190402 39.824143 36.000597 30.175983 33.487332 23.457849 Z M 24.633727 45.005687 C 21.118374 48.195764 17.759731 43.885857 12.538374 44.146755 L 12.473149 24.355746 L 16.43152 21.113998 C 24.151742 21.113998 29.489995 39.99271 24.633727 45.005687 Z M 24.633727 45.005687 " stroke="#660606" stroke-width="5.399997" stroke-opacity="1" stroke-miterlimit="4"/><g fill="#ff3131" fill-opacity="1"><g transform="translate(187.499992, 261.283493)"><g><path d="M 154.445312 -136.246094 C 144.359375 -161.820312 118.292969 -178.789062 94.929688 -180.265625 L 57.546875 -148.296875 C 56.808594 -162.804688 53.613281 -175.101562 38.117188 -180.265625 L -5.902344 -143.132812 L -1.722656 -135.507812 C 12.789062 -144.359375 18.199219 -139.441406 18.9375 -124.441406 L 19.183594 -28.527344 C 18.9375 -17.214844 15.492188 -12.296875 11.3125 -5.65625 L 17.214844 0 C 34.183594 -14.753906 51.644531 0 69.84375 0 C 87.058594 0 104.765625 -12.296875 120.257812 -26.070312 C 157.640625 -60.746094 166.003906 -105.257812 154.445312 -136.246094 Z M 113.621094 -36.890625 C 97.386719 -22.132812 81.894531 -42.054688 57.792969 -40.824219 L 57.546875 -132.0625 L 75.746094 -147.066406 C 111.40625 -147.066406 136 -60.007812 113.621094 -36.890625 Z M 113.621094 -36.890625 "/></g></g></g><path stroke-linecap="butt" transform="matrix(2.698884, 0, 0, 2.698884, 133.733156, 119.806413)" fill="none" stroke-linejoin="miter" d="M 37.653451 43.664681 L 34.294134 45.695324 C 32.797567 45.747429 30.766925 44.355071 28.474311 42.114562 C 33.592166 36.568289 36.104778 30.969911 32.693357 25.423638 L 25.284336 31.295566 C 27.629054 33.964493 27.941683 37.050259 26.560905 40.096946 C 24.048292 37.323809 21.379366 33.795152 19.034647 30.331627 L 20.154901 29.48637 C 24.908023 25.697189 30.81903 18.809215 25.805384 14.980956 C 19.086752 9.747312 3.255558 23.353917 7.199607 29.694789 L 10.884578 34.550673 C 10.715237 34.654883 10.611028 34.706987 10.506818 34.811197 C 3.411873 40.787335 -0.155863 46.125189 4.960545 50.969494 C 9.59643 55.134988 18.39781 52.257641 21.705021 48.416355 C 24.373948 51.138834 26.873534 53.000136 28.747861 53.000136 L 38.552259 44.954277 Z M 19.412407 21.908007 C 21.066737 24.303384 20.050692 26.439683 17.91584 28.62664 C 16.053091 25.801398 14.504419 23.132472 13.384164 20.944067 C 15.624673 19.668946 17.863735 19.994601 19.412407 21.908007 Z M 12.004833 36.15145 C 14.452314 39.719186 17.43387 43.664681 20.324242 46.919788 C 14.243894 50.12279 7.251712 41.581934 12.004833 36.15145 Z M 12.004833 36.15145 " stroke="#660606" stroke-width="5.399997" stroke-opacity="1" stroke-miterlimit="4"/><g fill="#ff3131" fill-opacity="1"><g transform="translate(133.733156, 262.84729)"><g><path d="M 101.617188 -25.1875 L 92.546875 -19.71875 C 88.519531 -19.574219 83.046875 -23.316406 76.859375 -29.363281 C 90.675781 -44.332031 97.441406 -59.445312 88.230469 -74.414062 L 68.222656 -58.582031 C 74.554688 -51.382812 75.421875 -43.035156 71.679688 -34.832031 C 64.914062 -42.316406 57.714844 -51.816406 51.382812 -61.171875 L 54.40625 -63.472656 C 67.214844 -73.691406 83.191406 -92.261719 69.664062 -102.625 C 51.527344 -116.726562 8.78125 -80.027344 19.429688 -62.898438 L 29.363281 -49.800781 C 28.929688 -49.511719 28.640625 -49.367188 28.355469 -49.082031 C 9.210938 -32.960938 -0.433594 -18.566406 13.386719 -5.46875 C 25.90625 5.757812 49.65625 -2.015625 58.582031 -12.378906 C 65.777344 -5.039062 72.542969 0 77.578125 0 L 104.0625 -21.734375 Z M 52.390625 -83.910156 C 56.851562 -77.433594 54.117188 -71.679688 48.359375 -65.777344 C 43.324219 -73.40625 39.148438 -80.601562 36.125 -86.503906 C 42.171875 -89.957031 48.21875 -89.09375 52.390625 -83.910156 Z M 32.382812 -45.480469 C 39.003906 -35.839844 47.066406 -25.1875 54.839844 -16.40625 C 38.429688 -7.773438 19.574219 -30.800781 32.382812 -45.480469 Z M 32.382812 -45.480469 "/></g></g></g></svg>