<svg xmlns="http://www.w3.org/2000/svg" xmlns:xlink="http://www.w3.org/1999/xlink" width="500" zoomAndPan="magnify" viewBox="0 0 375 374.999991" height="500" preserveAspectRatio="xMidYMid meet" version="1.0"><defs><g/></defs><rect x="-37.5" width="450" fill="#ffffff" y="-37.499999" height="449.999989" fill-opacity="1"/><rect x="-37.5" width="450" fill="#ffffff" y="-37.499999" height="449.999989" fill-opacity="1"/><rect x="-37.5" width="450" fill="#ffffff" y="-37.499999" height="449.999989" fill-opacity="1"/><path stroke-linecap="butt" transform="matrix(1.845363, 0, 0, 1.845363, 121.355255, 119.221552)" fill="none" stroke-linejoin="miter" d="M 33.487764 23.45677 C 31.301118 17.910775 25.649284 14.22544 20.583801 13.914272 L 12.472254 20.840415 C 12.317728 17.690628 11.627654 15.034055 8.268305 13.914272 L -1.27631 21.960198 L -0.376673 23.613412 C 2.773113 21.699832 3.945816 22.766695 4.100342 26.009621 L 4.153262 46.815568 C 4.100342 49.26258 3.359465 50.33156 2.447127 51.775212 L 3.736254 53.000834 C 7.408888 49.798128 11.197945 53.000834 15.141528 53.000834 C 18.879783 53.000834 22.719644 50.33156 26.078992 47.349 C 34.190539 39.823805 36.000396 30.175467 33.487764 23.45677 Z M 24.633223 45.005711 C 21.119349 48.195717 17.76 43.885928 12.537874 44.146294 L 12.472254 24.356406 L 16.430655 21.113481 C 24.152712 21.113481 29.491261 39.993148 24.633223 45.005711 Z M 24.633223 45.005711 " stroke="#660606" stroke-width="5.399997" stroke-opacity="1" stroke-miterlimit="4"/><g fill="#ff3131" fill-opacity="1"><g transform="translate(121.355255, 217.025804)"><g><path d="M 61.804688 -54.519531 C 57.769531 -64.757812 47.335938 -71.546875 37.988281 -72.136719 L 23.027344 -59.34375 C 22.734375 -65.148438 21.453125 -70.070312 15.253906 -72.136719 L -2.363281 -57.277344 L -0.6875 -54.226562 C 5.117188 -57.769531 7.28125 -55.800781 7.578125 -49.796875 L 7.675781 -11.414062 C 7.578125 -6.890625 6.199219 -4.921875 4.527344 -2.261719 L 6.890625 0 C 13.679688 -5.90625 20.667969 0 27.949219 0 C 34.839844 0 41.925781 -4.921875 48.125 -10.433594 C 63.082031 -24.308594 66.429688 -42.121094 61.804688 -54.519531 Z M 45.46875 -14.761719 C 38.972656 -8.855469 32.773438 -16.828125 23.128906 -16.335938 L 23.027344 -52.847656 L 30.3125 -58.851562 C 44.582031 -58.851562 54.421875 -24.011719 45.46875 -14.761719 Z M 45.46875 -14.761719 "/></g></g></g><path stroke-linecap="butt" transform="matrix(1.845363, 0, 0, 1.845363, 187.499992, 119.221552)" fill="none" stroke-linejoin="miter" d="M 33.487652 23.45677 C 31.301006 17.910775 25.649172 14.22544 20.583689 13.914272 L 12.472142 20.840415 C 12.317616 17.690628 11.627542 15.034055 8.268193 13.914272 L -1.276421 21.960198 L -0.376785 23.613412 C 2.773002 21.699832 3.945704 22.766695 4.102347 26.009621 L 4.15315 46.815568 C 4.102347 49.26258 3.359353 50.33156 2.447016 51.775212 L 3.736142 53.000834 C 7.408776 49.798128 11.197834 53.000834 15.141417 53.000834 C 18.879671 53.000834 22.719532 50.33156 26.078881 47.349 C 34.190427 39.823805 36.000284 30.175467 33.487652 23.45677 Z M 24.633112 45.005711 C 21.119237 48.195717 17.759888 43.885928 12.537763 44.146294 L 12.472142 24.356406 L 16.430543 21.113481 C 24.1526 21.113481 29.491149 39.993148 24.633112 45.005711 Z M 24.633112 45.005711 " stroke="#660606" stroke-width="5.399997" stroke-opacity="1" stroke-miterlimit="4"/><g fill="#ff3131" fill-opacity="1"><g transform="translate(187.499992, 217.025804)"><g><path d="M 61.804688 -54.519531 C 57.769531 -64.757812 47.335938 -71.546875 37.988281 -72.136719 L 23.027344 -59.34375 C 22.734375 -65.148438 21.453125 -70.070312 15.253906 -72.136719 L -2.363281 -57.277344 L -0.6875 -54.226562 C 5.117188 -57.769531 7.28125 -55.800781 7.578125 -49.796875 L 7.675781 -11.414062 C 7.578125 -6.890625 6.199219 -4.921875 4.527344 -2.261719 L 6.890625 0 C 13.679688 -5.90625 20.667969 0 27.949219 0 C 34.839844 0 41.925781 -4.921875 48.125 -10.433594 C 63.082031 -24.308594 66.429688 -42.121094 61.804688 -54.519531 Z M 45.46875 -14.761719 C 38.972656 -8.855469 32.773438 -16.828125 23.128906 -16.335938 L 23.027344 -52.847656 L 30.3125 -58.851562 C 44.582031 -58.851562 54.421875 -24.011719 45.46875 -14.761719 Z M 45.46875 -14.761719 "/></g></g></g><path stroke-linecap="butt" transform="matrix(1.080008, 0, 0, 1.080008, 165.984207, 160.411175)" fill="none" stroke-linejoin="miter" d="M 37.655413 43.665556 L 34.295339 45.694622 C 32.797954 45.748875 30.765272 44.356379 28.475791 42.113918 C 33.590049 36.569253 36.103775 30.970335 32.693064 25.422052 L 25.28571 31.295853 C 27.629443 33.965105 27.940494 37.050297 26.562466 40.095703 C 24.04874 37.325179 21.379488 33.795112 19.035755 30.333765 L 20.153368 29.487417 C 24.905938 25.696935 30.819525 18.81041 25.80654 14.980142 C 19.086391 9.746528 3.25534 23.353201 7.201348 29.693579 L 10.883324 34.551038 C 10.716948 34.655927 10.612059 34.706564 10.50717 34.811453 C 3.410866 40.786526 -0.15537 46.12503 4.958887 50.968022 C 9.595718 55.134659 18.395568 52.259245 21.705006 48.418127 C 24.374258 51.138015 26.873517 53.000704 28.747057 53.000704 L 38.552398 44.953163 Z M 19.411909 21.906452 C 21.06482 24.304439 20.052096 26.438393 17.914524 28.626601 C 16.055452 25.801824 14.503813 23.132572 13.3862 20.944364 C 15.625044 19.667608 17.863888 19.993127 19.411909 21.906452 Z M 12.004555 36.153313 C 14.453177 39.719549 17.43348 43.665556 20.323361 46.920742 C 14.243399 50.121674 7.251984 41.582238 12.004555 36.153313 Z M 12.004555 36.153313 " stroke="#660606" stroke-width="5.399997" stroke-opacity="1" stroke-miterlimit="4"/><g fill="#ff3131" fill-opacity="1"><g transform="translate(165.984207, 217.651583)"><g><path d="M 40.664062 -10.078125 L 37.035156 -7.890625 C 35.421875 -7.832031 33.234375 -9.332031 30.757812 -11.75 C 36.285156 -17.738281 38.992188 -23.789062 35.308594 -29.777344 L 27.300781 -23.441406 C 29.835938 -20.5625 30.179688 -17.222656 28.683594 -13.9375 C 25.976562 -16.933594 23.097656 -20.734375 20.5625 -24.480469 L 21.773438 -25.398438 C 26.898438 -29.488281 33.289062 -36.917969 27.875 -41.066406 C 20.621094 -46.710938 3.511719 -32.023438 7.777344 -25.167969 L 11.75 -19.929688 C 11.578125 -19.8125 11.460938 -19.753906 11.347656 -19.640625 C 3.6875 -13.191406 -0.171875 -7.429688 5.355469 -2.1875 C 10.367188 2.304688 19.871094 -0.804688 23.441406 -4.953125 C 26.320312 -2.015625 29.027344 0 31.042969 0 L 41.640625 -8.695312 Z M 20.964844 -33.578125 C 22.75 -30.988281 21.65625 -28.683594 19.351562 -26.320312 C 17.335938 -29.375 15.667969 -32.253906 14.457031 -34.617188 C 16.875 -35.996094 19.296875 -35.652344 20.964844 -33.578125 Z M 12.960938 -18.199219 C 15.609375 -14.339844 18.835938 -10.078125 21.945312 -6.566406 C 15.378906 -3.109375 7.832031 -12.324219 12.960938 -18.199219 Z M 12.960938 -18.199219 "/></g></g></g></svg>